<?xml version="1.0" encoding="utf-8"?>
<!DOCTYPE svg PUBLIC "-//W3C//DTD SVG 1.1//EN" "http://www.w3.org/Graphics/SVG/1.1/DTD/svg11.dtd">
<svg version="1.1" xmlns="http://www.w3.org/2000/svg" xmlns:xlink="http://www.w3.org/1999/xlink" x="0px" y="0px" width="235px"
	 height="76px" viewBox="0 0 235 76" enable-background="new 0 0 235 76" xml:space="preserve" role="img" aria-labelledby="title">
	<title id="title">JBICT.net 日本視覚障害者ICTネットワーク</title>
<g id="bg">
	<rect x="0" y="-0.001" fill="none" width="235" height="76"/>
</g>
<g id="logo">
	<g id="JBICT.net_logo_type_1_">
		<g>
			<path fill="#3366CC" d="M77.592,33.213c0-1.656,0.636-2.484,1.908-2.484h3.944c1.188,0,1.781,0.828,1.781,2.484v12.267
				c0,1.118-0.295,2.062-0.885,2.828s-1.314,1.149-2.176,1.149H70.436c-1.104,0-1.7-0.829-1.784-2.485
				c0.085-1.658,0.681-2.487,1.787-2.487h4.854c1.533,0,2.3-0.884,2.3-2.652V33.213z"/>
			<path fill="#3366CC" d="M100.537,37.523c0.427,0,0.683-0.332,0.769-0.995c0-0.552-0.257-0.828-0.771-0.828h-3.469v1.82
				L100.537,37.523z M97.066,42.495v1.983l3.471,0.006c0.513,0,0.769-0.331,0.769-0.994s-0.256-0.995-0.769-0.995H97.066z
				 M91.214,49.457c-1.188,0-1.781-0.773-1.781-2.32V32.882c0-1.436,0.595-2.153,1.785-2.153h15.172
				c1.699,0,2.549,1.159,2.549,3.479v2.32c0,1.879-0.722,3.039-2.166,3.481c1.444,0.662,2.166,1.879,2.166,3.646v2.32
				c0,0.954-0.241,1.771-0.725,2.454c-0.483,0.685-1.091,1.026-1.824,1.026H91.214z"/>
			<path fill="#3366CC" d="M113.146,33.545c0-1.877,0.637-2.816,1.91-2.816h3.689c1.356,0,2.036,0.939,2.036,2.816v13.261
				c0,1.768-0.68,2.651-2.036,2.651h-3.689c-1.273,0-1.91-0.884-1.91-2.651V33.545z"/>
			<path fill="#3366CC" d="M127.538,30.729h11.984c1.104,0,1.742,0.828,1.912,2.484c-0.085,1.659-0.724,2.487-1.915,2.487h-5.749
				c-0.766,0-1.148,0.497-1.148,1.491v5.636c0,1.105,0.383,1.657,1.148,1.657h5.876c1.192,0,1.831,0.829,1.916,2.487
				c-0.17,1.656-0.808,2.485-1.913,2.485h-12.111c-0.797,0-1.43-0.387-1.897-1.16c-0.435-0.703-0.653-1.588-0.653-2.651V34.042
				c0-0.896,0.253-1.674,0.758-2.33S126.847,30.729,127.538,30.729z"/>
			<path fill="#3366CC" d="M144.638,33.213c0.085-1.656,0.723-2.484,1.913-2.484h12.876c1.19,0,1.827,0.828,1.913,2.484
				c-0.086,1.659-0.723,2.487-1.913,2.487h-2.549v11.271c0,1.656-0.637,2.485-1.908,2.485h-3.944c-1.188,0-1.781-0.829-1.781-2.485
				V35.7h-2.687C145.363,35.7,144.723,34.872,144.638,33.213z"/>
			<path fill="#3366CC" d="M171.795,37.523c0-1.547,0.594-2.32,1.784-2.32h11.984c0.787,0,1.473,0.381,2.057,1.14
				s0.876,1.65,0.876,2.672v8.122c0,1.547-0.553,2.32-1.657,2.32h-3.314c-1.105-0.221-1.658-0.995-1.658-2.32V40.01
				c0-0.773-0.297-1.161-0.892-1.161h-2.551v8.288c0,1.547-0.553,2.32-1.657,2.32h-3.188c-1.19,0-1.784-0.773-1.784-2.32V37.523z"/>
			<path fill="#3366CC" d="M199.333,40.507h2.805c0.341,0,0.511-0.276,0.511-0.829c0-0.552-0.17-0.829-0.511-0.829h-1.784
				c-0.681,0-1.021,0.442-1.021,1.326V40.507z M199.333,44.484c0,0.885,0.34,1.326,1.021,1.326h7.649
				c0.85,0,1.317,0.553,1.403,1.657c-0.086,1.326-0.554,1.989-1.403,1.989h-12.877c-1.615,0-2.423-1.104-2.423-3.315v-7.624
				c0-0.842,0.243-1.605,0.726-2.289c0.484-0.684,1.05-1.025,1.697-1.025h11.857c1.614,0,2.423,1.104,2.423,3.314v2.486
				c0,2.1-0.809,3.149-2.423,3.149h-7.65V44.484z"/>
			<path fill="#3366CC" d="M215.397,32.386c0-1.105,0.425-1.657,1.275-1.657h3.697c1.104,0,1.657,0.552,1.657,1.657v2.817h1.275
				c0.85,0,1.317,0.607,1.402,1.823c-0.085,1.215-0.553,1.822-1.402,1.822h-1.275v8.454c0,1.436-0.553,2.154-1.657,2.154h-3.697
				c-0.851,0-1.275-0.719-1.275-2.154v-8.454h-1.274c-0.851,0-1.317-0.607-1.402-1.822c0.085-1.216,0.552-1.823,1.402-1.823h1.274
				V32.386z"/>
		</g>
		<circle fill="#3366CC" cx="166.008" cy="47.009" r="2.448"/>
	</g>
	<g id="JBICT_logo_mark">
		<g>
			<path fill="#DD1111" d="M61.637,24.676c0,0-4.715-1.348-8.324-2.477c-3.608-1.129-11.931-4.135-15.748-5.662
				s-7.315-3.146-7.315-3.146c-0.291-0.105-0.607-0.178-0.931-0.22c-0.323-0.042-0.653-0.053-0.972-0.034
				c-0.319,0.019-0.627,0.066-0.905,0.144c-0.279,0.077-0.528,0.183-0.729,0.316l-9.985,6.655c-0.229,0.152-0.387,0.322-0.476,0.499
				c-0.09,0.177-0.11,0.361-0.064,0.542c0.046,0.181,0.16,0.357,0.337,0.521c0.179,0.162,0.422,0.31,0.727,0.432
				c0,0,2.767,2.092,9.081,4.874c0.224,0.099,0.584,0.285,0.782,0.459c0.199,0.175,0.333,0.366,0.4,0.563s0.063,0.4-0.011,0.599
				c-0.076,0.197-0.225,0.39-0.452,0.563l-13.11,10.714l-0.724,0.554c-0.274,0.21-0.466,0.443-0.579,0.685
				c-0.113,0.242-0.145,0.493-0.099,0.738c0.046,0.247,0.171,0.487,0.372,0.707c0.202,0.22,0.637,0.478,0.832,0.583
				c6.555,3.553,14.057,6.679,20.47,8.442c0.282,0.077,0.557,0.071,0.998,0.14c0.441,0.069,0.89,0.081,1.32,0.038
				c0.429-0.043,0.839-0.141,1.205-0.29c0.365-0.148,0.684-0.348,0.933-0.597l24.284-24.235c0.167-0.167,0.255-0.352,0.271-0.543
				c0.016-0.189-0.041-0.386-0.161-0.576s-0.304-0.375-0.545-0.543C62.279,24.952,61.983,24.801,61.637,24.676"/>
			<g>
				<path fill="#FFFFFF" d="M39.005,44.54l-6.834-1.845c-0.227-0.062-0.438-0.104-0.63-0.13c-0.194-0.024-0.371-0.03-0.531-0.02
					c-0.161,0.013-0.305,0.042-0.433,0.091c-0.128,0.048-0.24,0.114-0.336,0.199l-1.286,1.136c-0.104,0.093-0.168,0.182-0.189,0.268
					c-0.022,0.085-0.002,0.167,0.059,0.244c0.062,0.079,0.165,0.153,0.31,0.225c0.145,0.07,0.333,0.138,0.562,0.202l4.832,1.339
					c0.251,0.069,0.456,0.146,0.613,0.227s0.269,0.169,0.333,0.262c0.064,0.094,0.083,0.193,0.053,0.299
					c-0.029,0.104-0.106,0.216-0.229,0.334l-1.59,1.508c-0.092,0.087-0.143,0.172-0.153,0.256c-0.011,0.085,0.019,0.167,0.089,0.248
					c0.07,0.082,0.182,0.162,0.334,0.241s0.346,0.156,0.58,0.232c0.249,0.062,0.479,0.105,0.688,0.131
					c0.21,0.025,0.4,0.031,0.571,0.019c0.17-0.014,0.321-0.045,0.452-0.096s0.241-0.12,0.331-0.207l3.731-3.633
					c0.066-0.065,0.116-0.132,0.15-0.199c0.034-0.066,0.051-0.135,0.052-0.204s-0.015-0.14-0.046-0.211
					c-0.032-0.071-0.08-0.145-0.144-0.218c-0.064-0.074-0.141-0.144-0.229-0.209s-0.188-0.128-0.299-0.187
					c-0.112-0.058-0.235-0.111-0.37-0.162C39.311,44.63,39.164,44.583,39.005,44.54"/>
				<path fill="#FFFFFF" d="M36.96,39.698l1.035-0.938c0.038-0.035,0.081-0.062,0.128-0.083c0.047-0.021,0.099-0.035,0.155-0.044
					c0.056-0.007,0.117-0.008,0.183-0.002c0.065,0.006,0.366,0.073,0.441,0.092c0.083,0.025,0.355,0.108,0.41,0.137
					c0.055,0.029,0.095,0.058,0.121,0.086c0.026,0.029,0.038,0.058,0.035,0.087c-0.003,0.028-0.02,0.058-0.051,0.086l-1.032,0.942
					L36.96,39.698 M40.626,40.669l1.017-0.954c0.037-0.035,0.081-0.062,0.132-0.083c0.051-0.021,0.108-0.033,0.173-0.04
					c0.064-0.005,0.135-0.003,0.213,0.005c0.077,0.009,0.447,0.074,0.538,0.097c0.091,0.023,0.428,0.117,0.487,0.143
					c0.059,0.026,0.102,0.055,0.129,0.084c0.027,0.029,0.039,0.061,0.034,0.092c-0.005,0.033-0.026,0.066-0.063,0.102l-1.015,0.957
					L40.626,40.669 M46.227,37.984l-1.269-0.316c-0.241-0.06-0.476-0.103-0.703-0.129c-0.228-0.027-0.45-0.037-0.665-0.03
					s-0.425,0.029-0.628,0.069c-0.205,0.039-0.402,0.096-0.595,0.168c0.043-0.11,0.049-0.215,0.018-0.312
					c-0.031-0.099-0.099-0.19-0.204-0.276c-0.104-0.087-0.245-0.167-0.423-0.241s-0.393-0.143-0.644-0.205l-1.237-0.309
					c-0.308-0.076-0.592-0.13-0.853-0.16s-0.498-0.037-0.713-0.021c-0.214,0.016-0.406,0.056-0.576,0.118
					c-0.169,0.063-0.316,0.149-0.44,0.26l-4.585,4.053c-0.092,0.082-0.15,0.161-0.171,0.236c-0.021,0.074-0.007,0.146,0.043,0.213
					c0.051,0.066,0.137,0.13,0.26,0.189c0.123,0.06,0.282,0.115,0.477,0.167l7.909,2.104c0.218,0.059,0.422,0.099,0.608,0.12
					c0.187,0.022,0.357,0.026,0.512,0.013c0.155-0.014,0.292-0.046,0.414-0.096c0.122-0.05,0.227-0.118,0.315-0.204l4.36-4.246
					c0.052-0.05,0.088-0.101,0.111-0.151c0.023-0.052,0.031-0.104,0.026-0.156s-0.024-0.106-0.057-0.161
					c-0.033-0.055-0.081-0.109-0.141-0.166c-0.061-0.056-0.131-0.108-0.208-0.158c-0.079-0.05-0.166-0.098-0.262-0.142
					c-0.096-0.044-0.2-0.085-0.313-0.124C46.479,38.053,46.357,38.018,46.227,37.984"/>
				<path fill="#FFFFFF" d="M49.881,35.026l-7.035-1.688c-0.245-0.059-0.47-0.101-0.677-0.124c-0.206-0.022-0.394-0.028-0.562-0.017
					c-0.169,0.012-0.318,0.042-0.45,0.09c-0.131,0.047-0.244,0.112-0.338,0.196l-1.034,0.913c-0.09,0.08-0.138,0.157-0.144,0.231
					c-0.006,0.075,0.03,0.147,0.108,0.219c0.078,0.069,0.198,0.138,0.36,0.203c0.163,0.065,0.368,0.129,0.615,0.189l7.111,1.75
					c0.241,0.059,0.463,0.101,0.667,0.124c0.203,0.024,0.387,0.03,0.55,0.019c0.165-0.013,0.309-0.042,0.434-0.09
					c0.125-0.048,0.229-0.112,0.314-0.196l0.981-0.955c0.09-0.087,0.138-0.17,0.145-0.249c0.007-0.08-0.027-0.156-0.103-0.229
					c-0.076-0.071-0.192-0.14-0.349-0.205C50.317,35.145,50.12,35.084,49.881,35.026"/>
				<path fill="#FFFFFF" d="M55.216,30.009c-0.222-0.044-0.426-0.074-0.61-0.09c-0.185-0.016-0.351-0.017-0.498-0.004
					c-0.146,0.013-0.275,0.039-0.385,0.08s-0.201,0.096-0.275,0.166l-1.46,1.385c-0.048,0.045-0.108,0.081-0.181,0.107
					c-0.072,0.025-0.157,0.041-0.254,0.048c-0.098,0.006-0.207,0.002-0.328-0.012s-0.254-0.037-0.4-0.07l-2.938-0.681
					c-0.129-0.03-0.235-0.062-0.319-0.095c-0.084-0.034-0.146-0.069-0.186-0.106c-0.039-0.037-0.056-0.077-0.051-0.118
					s0.032-0.084,0.081-0.129l1.467-1.328c0.075-0.068,0.115-0.134,0.12-0.198c0.004-0.064-0.026-0.126-0.091-0.187
					c-0.065-0.06-0.166-0.117-0.301-0.174c-0.135-0.056-0.305-0.11-0.51-0.162c-0.221-0.038-0.422-0.063-0.604-0.075
					c-0.183-0.013-0.347-0.013-0.491-0.001c-0.145,0.013-0.271,0.037-0.379,0.074c-0.107,0.038-0.196,0.087-0.267,0.149
					l-3.138,2.774c-0.046,0.041-0.08,0.083-0.102,0.126s-0.032,0.087-0.03,0.133s0.016,0.093,0.042,0.141
					c0.025,0.048,0.064,0.097,0.114,0.146c0.051,0.05,0.11,0.098,0.178,0.142c0.067,0.045,0.142,0.087,0.226,0.126
					s0.176,0.075,0.275,0.108c0.101,0.033,0.209,0.064,0.325,0.092l6.112,1.448c0.143,0.033,0.283,0.062,0.42,0.087
					c0.138,0.023,0.272,0.043,0.405,0.058s0.263,0.024,0.391,0.029c0.128,0.005,0.253,0.005,0.375,0
					c0.134-0.005,0.257-0.015,0.371-0.03c0.114-0.016,0.217-0.037,0.309-0.063c0.092-0.027,0.174-0.061,0.246-0.099
					c0.071-0.038,0.133-0.082,0.183-0.131l3.003-2.924c0.066-0.065,0.099-0.13,0.096-0.193c-0.002-0.063-0.039-0.126-0.108-0.188
					c-0.071-0.062-0.176-0.123-0.315-0.183C55.596,30.127,55.423,30.067,55.216,30.009"/>
				<path fill="#FFFFFF" d="M52.923,24.123c-0.209-0.039-0.401-0.065-0.575-0.079c-0.174-0.014-0.331-0.015-0.47-0.003
					s-0.261,0.036-0.366,0.072c-0.104,0.037-0.192,0.087-0.262,0.149l-3.123,2.76c-0.074,0.065-0.114,0.13-0.119,0.191
					c-0.005,0.062,0.024,0.122,0.088,0.181s0.164,0.115,0.297,0.17c0.134,0.055,0.303,0.107,0.506,0.159
					c0.214,0.042,0.412,0.07,0.592,0.085c0.179,0.015,0.341,0.017,0.486,0.004c0.144-0.013,0.27-0.039,0.379-0.077
					c0.109-0.04,0.2-0.093,0.273-0.159l0.655-0.594l5.761,1.268c0.215,0.048,0.412,0.081,0.591,0.1s0.339,0.023,0.481,0.014
					c0.142-0.011,0.267-0.034,0.372-0.073c0.106-0.038,0.193-0.091,0.262-0.157l0.904-0.881c0.073-0.07,0.109-0.138,0.11-0.202
					s-0.034-0.125-0.105-0.184c-0.071-0.058-0.177-0.112-0.318-0.165c-0.142-0.052-0.319-0.1-0.531-0.146l-5.701-1.227l0.598-0.542
					c0.07-0.062,0.105-0.124,0.107-0.184c0.002-0.059-0.03-0.115-0.096-0.171c-0.065-0.056-0.165-0.108-0.297-0.16
					C53.289,24.221,53.122,24.171,52.923,24.123"/>
			</g>
		</g>
		<g>
			<path fill="#993333" d="M14.603,27.097c0.034,0.194,0.138,0.383,0.311,0.553c0.173,0.171,0.416,0.324,0.724,0.446l7.993,4.004
				l3.421-2.796c0.227-0.174,0.376-0.366,0.452-0.563c0.075-0.198,0.078-0.401,0.011-0.599s-0.201-0.389-0.4-0.563
				c-0.198-0.174-0.558-0.36-0.782-0.459c-6.314-2.782-9.081-4.874-9.081-4.874c-0.305-0.122-0.548-0.27-0.727-0.432
				c-0.178-0.163-0.291-0.34-0.337-0.521c-0.016-0.062-0.013-0.124-0.013-0.187l-1.464,5.401c0,0,0,0.001,0,0.001
				c-0.06,0.108-0.095,0.219-0.11,0.329l-0.013,0.037l0.009,0.001C14.59,26.949,14.59,27.023,14.603,27.097z"/>
			<path fill="#993333" d="M64.831,32.09l-1.654-6.216l-0.016,0.003c0.045,0.121,0.073,0.243,0.063,0.362
				c-0.016,0.191-0.104,0.376-0.271,0.543L38.669,51.018c-0.249,0.249-0.568,0.448-0.933,0.597c-0.365,0.149-0.775,0.247-1.205,0.29
				c-0.43,0.043-0.879,0.031-1.32-0.038c-0.441-0.068-0.716-0.062-0.998-0.14c-6.413-1.764-13.915-4.89-20.47-8.442
				c-0.195-0.105-0.63-0.363-0.832-0.583c-0.201-0.22-0.326-0.46-0.372-0.707c-0.012-0.062-0.004-0.127-0.005-0.19h-0.006
				l-2.06,6.618c-0.142,0.3-0.197,0.607-0.166,0.906c0.032,0.302,0.151,0.594,0.357,0.857c0.207,0.265,0.5,0.502,0.879,0.69
				L33.934,62.37c0.454,0.227,0.947,0.375,1.45,0.447c0.503,0.072,1.016,0.07,1.506-0.004c0.49-0.073,0.957-0.218,1.372-0.428
				c0.414-0.209,0.776-0.483,1.056-0.817l25.354-28.483c0.162-0.193,0.238-0.404,0.238-0.618
				C64.91,32.342,64.881,32.216,64.831,32.09z"/>
		</g>
	</g>
	<g id="日本視覚障害者ICTネットワーク_1_">
		<g>
			<path fill="#444444" d="M76.95,60.963c0,0.68-0.33,0.968-0.988,0.968h-5.588c-0.659,0-0.988-0.288-0.988-0.968v-6.841
				c0-0.69,0.329-0.978,0.988-0.978h5.588c0.658,0,0.988,0.287,0.988,0.978V60.963z M76.101,56.99v-2.72
				c0-0.244-0.128-0.319-0.361-0.319h-5.143c-0.234,0-0.361,0.075-0.361,0.319v2.72H76.101z M70.235,60.804
				c0,0.245,0.127,0.319,0.361,0.319h5.143c0.233,0,0.361-0.074,0.361-0.319v-3.017h-5.865V60.804z"/>
			<path fill="#444444" d="M79.373,55.28c-0.191,0-0.298-0.17-0.298-0.394c0-0.212,0.106-0.382,0.298-0.382h3.931v-1.584
				c0-0.212,0.16-0.318,0.404-0.318c0.254,0,0.403,0.106,0.403,0.318v1.584h4.059c0.191,0,0.298,0.158,0.298,0.382
				c0,0.213-0.106,0.394-0.298,0.394h-3.687c0.881,1.773,2.443,3.452,4.026,4.388c0.159,0.095,0.224,0.255,0.224,0.403
				c0,0.096-0.032,0.191-0.075,0.266c-0.095,0.139-0.233,0.212-0.372,0.212c-0.096,0-0.19-0.031-0.286-0.096
				c-1.509-0.978-3.112-2.687-3.995-4.802c0.074,0.489,0.106,1.074,0.106,1.552v2.272h1.806c0.191,0,0.298,0.171,0.298,0.372
				c0,0.224-0.106,0.372-0.298,0.372h-1.806v1.955c0,0.202-0.149,0.308-0.403,0.308c-0.244,0-0.404-0.105-0.404-0.308V60.22h-1.827
				c-0.191,0-0.308-0.148-0.308-0.372c0-0.201,0.116-0.372,0.308-0.372h1.827v-2.263c0-0.467,0.021-1.051,0.096-1.55
				c-0.85,2.049-2.412,3.834-3.824,4.802c-0.107,0.073-0.224,0.116-0.33,0.116c-0.127,0-0.244-0.063-0.34-0.181
				c-0.063-0.085-0.096-0.181-0.096-0.276c0-0.138,0.074-0.276,0.213-0.372c1.402-0.924,2.996-2.603,3.878-4.472H79.373z"/>
			<path fill="#444444" d="M91.007,59.157c0-0.319,0.032-0.712,0.053-1.041c-0.35,0.394-0.754,0.775-1.104,1.041
				c-0.086,0.074-0.182,0.106-0.266,0.106c-0.117,0-0.224-0.053-0.298-0.171c-0.063-0.084-0.096-0.17-0.096-0.265
				c0-0.117,0.053-0.234,0.17-0.308c1.041-0.681,2.358-2.104,2.826-3.123c0.021-0.054,0.032-0.106,0.032-0.139
				c0-0.075-0.054-0.105-0.16-0.105h-2.283c-0.191,0-0.299-0.171-0.299-0.384c0-0.212,0.107-0.351,0.299-0.351h1.146v-1.508
				c0-0.191,0.16-0.298,0.404-0.298s0.403,0.106,0.403,0.298v1.508h0.69c0.414,0,0.659,0.224,0.659,0.574
				c0,0.128-0.032,0.276-0.097,0.425c-0.265,0.585-0.658,1.158-1.094,1.668c0.404,0.457,0.86,0.86,1.264,1.126
				c0.107,0.074,0.149,0.181,0.149,0.298c0,0.084-0.021,0.17-0.074,0.233c-0.085,0.116-0.191,0.18-0.298,0.18
				c-0.074,0-0.138-0.021-0.201-0.073c-0.372-0.298-0.766-0.659-1.084-1.052c0.031,0.372,0.053,0.765,0.053,1.137v3.251
				c0,0.191-0.148,0.297-0.393,0.297c-0.234,0-0.404-0.105-0.404-0.297V59.157z M95.724,59.04c-0.084,1.541-0.912,2.72-2.485,3.357
				c-0.063,0.032-0.127,0.043-0.181,0.043c-0.159,0-0.287-0.085-0.351-0.255c-0.032-0.054-0.042-0.117-0.042-0.181
				c0-0.148,0.074-0.276,0.233-0.34c1.254-0.51,1.944-1.317,2.029-2.625h-0.319c-0.69,0-0.893-0.233-0.893-0.817v-4.398
				c0-0.605,0.287-0.85,0.904-0.85h3.304c0.605,0,0.903,0.244,0.903,0.839v4.409c0,0.573-0.234,0.817-0.893,0.817H97.36v2.264
				c0,0.276,0.064,0.33,0.563,0.33c0.456,0,0.627-0.065,0.701-0.225c0.095-0.19,0.138-0.552,0.159-0.913
				c0.011-0.191,0.127-0.309,0.34-0.309c0.011,0,0.021,0,0.031,0c0.225,0.011,0.352,0.139,0.352,0.33c0,0.011,0,0.011,0,0.021
				c-0.021,0.543-0.096,1.063-0.276,1.36c-0.191,0.319-0.511,0.457-1.36,0.457c-1.009,0-1.285-0.149-1.285-0.808V59.04H95.724z
				 M98.04,54.802V53.93c0-0.212-0.084-0.265-0.297-0.265H94.79c-0.224,0-0.298,0.053-0.298,0.265v0.872H98.04z M98.04,56.545
				v-1.084h-3.548v1.084H98.04z M94.492,58.095c0,0.213,0.074,0.276,0.298,0.276h2.953c0.213,0,0.297-0.063,0.297-0.276v-0.892
				h-3.548V58.095z"/>
			<path fill="#444444" d="M102.705,59.954c-0.573,0-0.839-0.234-0.839-0.765v-2.964c0-0.553,0.275-0.765,0.893-0.765h4.525
				c0.616,0,0.893,0.212,0.893,0.765v2.964c0,0.53-0.266,0.765-0.839,0.765h-0.978v1.286c0,0.233,0.084,0.318,0.244,0.34
				c0.201,0.042,0.488,0.042,0.998,0.042c0.479,0,0.766,0,0.945-0.054c0.16-0.03,0.287-0.116,0.341-0.233
				c0.074-0.148,0.116-0.435,0.149-0.839c0.01-0.181,0.127-0.298,0.35-0.298c0.032,0,0.054,0,0.086,0
				c0.254,0.021,0.371,0.17,0.371,0.372c0,0.011,0,0.021,0,0.021c-0.031,0.468-0.148,1.021-0.297,1.243
				c-0.148,0.233-0.394,0.361-0.713,0.425c-0.233,0.043-0.627,0.074-1.264,0.074c-0.68,0-1.158-0.011-1.413-0.063
				c-0.372-0.085-0.616-0.309-0.616-0.786v-1.53h-1.35c-0.318,1.445-1.604,2.231-3.453,2.518c-0.031,0.011-0.062,0.011-0.096,0.011
				c-0.201,0-0.371-0.105-0.414-0.34c-0.01-0.032-0.01-0.074-0.01-0.105c0-0.202,0.127-0.329,0.328-0.362
				c1.594-0.212,2.54-0.743,2.806-1.721H102.705z M108.729,54.09c0.605,0,0.893,0.244,0.893,0.808v1.254
				c0,0.19-0.139,0.308-0.394,0.308c-0.212,0-0.383-0.117-0.383-0.308v-1.105c0-0.233-0.095-0.287-0.329-0.287h-6.98
				c-0.212,0-0.318,0.054-0.318,0.287v1.105c0,0.19-0.16,0.308-0.393,0.308c-0.234,0-0.383-0.117-0.383-0.308v-1.254
				c0-0.563,0.276-0.808,0.893-0.808h1.125c-0.169-0.308-0.456-0.69-0.668-0.987c-0.043-0.054-0.064-0.106-0.064-0.16
				c0-0.116,0.085-0.223,0.234-0.276c0.074-0.021,0.138-0.031,0.201-0.031c0.139,0,0.244,0.053,0.318,0.138
				c0.266,0.351,0.617,0.893,0.84,1.317h1.52c-0.17-0.403-0.414-0.829-0.584-1.094c-0.043-0.054-0.054-0.107-0.054-0.149
				c0-0.127,0.096-0.233,0.266-0.286c0.063-0.021,0.117-0.032,0.171-0.032c0.137,0,0.254,0.063,0.34,0.202
				c0.223,0.329,0.498,0.882,0.669,1.359h1.126c0.361-0.457,0.616-0.893,0.797-1.296c0.063-0.128,0.181-0.202,0.329-0.202
				c0.063,0,0.128,0.011,0.202,0.043c0.18,0.053,0.266,0.159,0.266,0.286c0,0.042-0.011,0.097-0.043,0.149
				c-0.18,0.351-0.436,0.722-0.69,1.02H108.729z M107.433,56.746V56.3c0-0.191-0.095-0.244-0.286-0.244h-4.25
				c-0.191,0-0.287,0.053-0.287,0.244v0.446H107.433z M107.433,58.021v-0.69h-4.823v0.69H107.433z M102.609,58.604v0.511
				c0,0.19,0.096,0.244,0.287,0.244h4.25c0.191,0,0.286-0.054,0.286-0.244v-0.511H102.609z"/>
			<path fill="#444444" d="M113.447,52.889c0.446,0,0.722,0.234,0.722,0.67c0,0.106-0.021,0.244-0.062,0.383
				c-0.203,0.658-0.606,1.53-0.957,2.146c-0.031,0.063-0.053,0.116-0.053,0.17c0,0.063,0.021,0.127,0.074,0.19
				c0.446,0.595,0.828,1.466,0.828,2.358c0,0.978-0.467,1.371-1.094,1.371c-0.244,0-0.468-0.032-0.605-0.064
				c-0.148-0.042-0.234-0.17-0.234-0.329c0-0.043,0-0.085,0.012-0.128c0.053-0.19,0.148-0.255,0.275-0.255
				c0.032,0,0.064,0,0.085,0.011c0.106,0.021,0.245,0.043,0.383,0.043c0.233,0,0.394-0.171,0.394-0.755
				c0-0.68-0.309-1.424-0.776-2.05c-0.085-0.116-0.128-0.233-0.128-0.361c0-0.116,0.033-0.245,0.107-0.361
				c0.35-0.584,0.754-1.466,0.913-1.986c0.011-0.053,0.021-0.096,0.021-0.128c0-0.116-0.075-0.181-0.255-0.181h-0.903
				c-0.19,0-0.287,0.054-0.287,0.256v8.286c0,0.223-0.148,0.329-0.394,0.329c-0.244,0-0.393-0.106-0.393-0.329v-8.446
				c0-0.595,0.287-0.84,0.861-0.84H113.447z M115.274,59.593c-0.574,0-0.828-0.212-0.828-0.733V56.99
				c0-0.521,0.254-0.732,0.828-0.732h3.846c0.585,0,0.84,0.212,0.84,0.732v1.869c0,0.521-0.255,0.733-0.84,0.733h-1.604v0.733h2.847
				c0.181,0,0.276,0.139,0.276,0.329c0,0.213-0.096,0.351-0.276,0.351h-2.847v1.2c0,0.202-0.149,0.298-0.383,0.298
				c-0.234,0-0.393-0.096-0.393-0.298v-1.2h-2.721c-0.181,0-0.275-0.138-0.275-0.34c0-0.201,0.095-0.34,0.275-0.34h2.721v-0.733
				H115.274z M120.353,55.046c0.182,0,0.276,0.149,0.276,0.341c0,0.202-0.095,0.318-0.276,0.318h-6.215
				c-0.17,0-0.266-0.116-0.266-0.318c0-0.191,0.096-0.341,0.266-0.341h1.467c-0.064-0.35-0.191-0.68-0.33-0.999h-0.648
				c-0.159,0-0.254-0.117-0.254-0.318c0-0.18,0.095-0.318,0.254-0.318h2.082v-0.542c0-0.181,0.171-0.276,0.404-0.276
				c0.244,0,0.383,0.096,0.383,0.276v0.542h2.528c0.181,0,0.276,0.139,0.276,0.318c0,0.201-0.096,0.318-0.276,0.318h-0.935
				c-0.106,0.341-0.244,0.681-0.404,0.999H120.353z M119.216,57.596v-0.488c0-0.181-0.096-0.234-0.286-0.234h-3.453
				c-0.19,0-0.287,0.054-0.287,0.234v0.488H119.216z M115.189,58.765c0,0.17,0.097,0.232,0.287,0.232h3.453
				c0.19,0,0.286-0.062,0.286-0.232v-0.563h-4.026V58.765z M117.909,55.046c0.17-0.308,0.309-0.658,0.393-0.999h-2.263
				c0.128,0.319,0.245,0.659,0.308,0.999H117.909z"/>
			<path fill="#444444" d="M137.906,55.917c1.009-0.764,1.827-1.636,2.549-2.612c0.085-0.107,0.191-0.171,0.319-0.171
				c0.074,0,0.159,0.021,0.233,0.074c0.138,0.074,0.191,0.202,0.191,0.33c0,0.095-0.032,0.18-0.096,0.254
				c-0.659,0.797-1.317,1.478-2.072,2.125h2.423c0.191,0,0.309,0.149,0.309,0.372c0,0.224-0.117,0.372-0.309,0.372h-3.357
				c-0.585,0.425-1.243,0.796-1.912,1.072c0.382-0.053,0.765-0.063,1.147-0.063h2.263c0.658,0,0.935,0.233,0.935,0.808v2.942
				c0,0.574-0.276,0.809-0.935,0.809h-4.356c-0.669,0-0.934-0.234-0.934-0.809v-1.551c0-0.308,0.041-0.722,0.084-1.084
				c-0.605,0.308-1.221,0.563-1.827,0.776c-0.063,0.021-0.128,0.031-0.181,0.031c-0.17,0-0.308-0.096-0.372-0.276
				c-0.021-0.053-0.031-0.105-0.031-0.159c0-0.17,0.106-0.319,0.297-0.372c1.275-0.383,3.081-1.211,4.547-2.124h-4.344
				c-0.192,0-0.31-0.148-0.31-0.372c0-0.213,0.117-0.372,0.31-0.372h3.644v-1.254h-2.646c-0.181,0-0.298-0.138-0.298-0.36
				c0-0.213,0.117-0.361,0.298-0.361h2.646v-1.03c0-0.191,0.148-0.309,0.403-0.309c0.233,0,0.394,0.117,0.394,0.309v1.03h1.869
				c0.181,0,0.308,0.159,0.308,0.372c0,0.212-0.127,0.35-0.339,0.35h-1.838v1.254H137.906z M139.723,59.519v-0.902
				c0-0.214-0.096-0.267-0.309-0.267h-4.006c-0.201,0-0.297,0.053-0.297,0.267v0.902H139.723z M135.111,61.25
				c0,0.213,0.096,0.276,0.297,0.276h4.006c0.213,0,0.309-0.063,0.309-0.276v-1.052h-4.611V61.25z"/>
			<path fill="#444444" d="M145.8,53.75c0-0.298,0.213-0.436,0.5-0.436c0.298,0,0.521,0.138,0.521,0.436v7.532
				c0,0.286-0.223,0.436-0.521,0.436c-0.287,0-0.5-0.149-0.5-0.436V53.75z"/>
			<path fill="#444444" d="M155.076,55.131c0.031,0.074,0.042,0.149,0.042,0.213c0,0.223-0.17,0.372-0.329,0.425
				c-0.086,0.032-0.171,0.043-0.255,0.043c-0.182,0-0.351-0.074-0.447-0.276c-0.318-0.766-0.85-1.393-2.061-1.393
				c-1.594,0-2.646,1.286-2.646,3.379c0,2.051,1.052,3.368,2.646,3.368c1.274,0,1.88-0.766,2.157-1.615
				c0.084-0.234,0.275-0.329,0.478-0.329c0.063,0,0.139,0.011,0.213,0.031c0.18,0.043,0.371,0.201,0.371,0.425
				c0,0.064-0.011,0.117-0.031,0.181c-0.372,1.052-1.265,2.241-3.156,2.241c-2.284,0-3.739-1.667-3.739-4.312
				c0-2.581,1.455-4.292,3.665-4.292C153.854,53.219,154.693,54.196,155.076,55.131z"/>
			<path fill="#444444" d="M156.319,54.313c-0.266,0-0.415-0.213-0.415-0.457c0-0.256,0.149-0.479,0.404-0.479h5.854
				c0.255,0,0.404,0.223,0.404,0.479c0,0.244-0.16,0.457-0.404,0.457h-2.412v6.969c0,0.286-0.223,0.436-0.51,0.436
				c-0.286,0-0.51-0.149-0.51-0.436v-6.969H156.319z"/>
			<path fill="#444444" d="M173.394,54.355c0.446,0,0.732,0.191,0.839,0.5c0.031,0.074,0.043,0.159,0.043,0.244
				c0,0.255-0.139,0.542-0.404,0.817c-0.669,0.648-1.509,1.222-2.273,1.646c1.168,0.415,2.443,0.968,3.537,1.594
				c0.149,0.096,0.234,0.233,0.234,0.383c0,0.085-0.021,0.17-0.063,0.244c-0.086,0.17-0.245,0.255-0.394,0.255
				c-0.085,0-0.159-0.021-0.233-0.063c-0.914-0.542-2.125-1.158-3.061-1.562c-0.318-0.138-0.351-0.169-0.467-0.233l-0.021,0.011
				c0.031,0.17,0.031,0.372,0.031,0.669v2.964c0,0.257-0.19,0.383-0.456,0.383c-0.255,0-0.446-0.126-0.446-0.383v-2.4
				c0-0.36,0.011-0.786,0.042-1.104l-0.031-0.011c-1.021,0.615-2.369,1.211-3.496,1.498c-0.042,0.011-0.084,0.011-0.116,0.011
				c-0.191,0-0.361-0.106-0.425-0.319c-0.011-0.042-0.021-0.096-0.021-0.138c0-0.182,0.106-0.33,0.318-0.383
				c2.571-0.797,5.132-2.167,6.513-3.441c0.107-0.096,0.149-0.17,0.149-0.224c0-0.085-0.085-0.128-0.234-0.128h-5.758
				c-0.213,0-0.352-0.18-0.352-0.414c0-0.233,0.139-0.414,0.352-0.414h3.027v-1.104c0-0.255,0.202-0.383,0.457-0.383
				s0.457,0.128,0.457,0.383v1.104H173.394z"/>
			<path fill="#444444" d="M177.431,55.663c0.148,0,0.276,0.074,0.351,0.223c0.33,0.627,0.669,1.508,0.882,2.198
				c0.011,0.063,0.021,0.106,0.021,0.16c0,0.181-0.117,0.297-0.297,0.35c-0.064,0.022-0.117,0.032-0.171,0.032
				c-0.17,0-0.318-0.085-0.371-0.266c-0.202-0.68-0.542-1.551-0.85-2.156c-0.032-0.053-0.043-0.096-0.043-0.148
				c0-0.16,0.116-0.298,0.275-0.351C177.293,55.673,177.367,55.663,177.431,55.663z M183.688,55.864c0,0.021,0,0.053,0,0.074
				c-0.138,1.412-0.595,2.837-1.327,3.813c-0.829,1.095-2.147,1.956-3.57,2.253c-0.043,0.01-0.085,0.01-0.117,0.01
				c-0.191,0-0.329-0.104-0.383-0.286c-0.01-0.054-0.021-0.106-0.021-0.16c0-0.169,0.106-0.308,0.297-0.35
				c1.19-0.287,2.412-0.999,3.124-1.987c0.638-0.882,1.009-2.155,1.147-3.441c0.011-0.233,0.212-0.329,0.393-0.329
				c0.011,0,0.032,0,0.053,0C183.551,55.503,183.688,55.631,183.688,55.864z M179.662,55.237c0.149,0,0.276,0.074,0.361,0.234
				c0.329,0.627,0.638,1.444,0.828,2.166c0.011,0.032,0.011,0.074,0.011,0.106c0,0.159-0.096,0.298-0.287,0.361
				c-0.063,0.011-0.116,0.021-0.18,0.021c-0.171,0-0.329-0.085-0.361-0.244c-0.181-0.68-0.51-1.529-0.797-2.104
				c-0.032-0.053-0.043-0.106-0.043-0.16c0-0.147,0.117-0.275,0.276-0.339C179.535,55.248,179.598,55.237,179.662,55.237z"/>
			<path fill="#444444" d="M187.312,61.665c0,0.287-0.202,0.403-0.468,0.403c-0.287,0-0.468-0.116-0.468-0.403V53.41
				c0-0.287,0.181-0.403,0.468-0.403c0.266,0,0.468,0.116,0.468,0.414v2.73c1.604,0.425,3.581,1.137,5.185,1.901
				c0.202,0.095,0.287,0.255,0.287,0.446c0,0.073-0.011,0.148-0.043,0.233c-0.063,0.18-0.234,0.308-0.425,0.308
				c-0.074,0-0.148-0.021-0.223-0.053c-1.403-0.712-3.229-1.444-4.781-1.891V61.665z"/>
			<path fill="#444444" d="M201.104,53.644c0.955,0,1.392,0.446,1.392,1.296c0,0.032,0,0.064,0,0.097
				c-0.043,1.954-0.596,3.526-1.583,4.695c-0.882,1.041-2.125,1.764-3.676,2.156c-0.064,0.011-0.128,0.022-0.191,0.022
				c-0.233,0-0.394-0.128-0.457-0.342c-0.011-0.053-0.021-0.105-0.021-0.159c0-0.201,0.128-0.35,0.361-0.403
				c1.498-0.382,2.656-1.083,3.41-2.061c0.766-0.957,1.158-2.264,1.201-3.92c0-0.011,0-0.021,0-0.032
				c0-0.351-0.149-0.479-0.553-0.479h-5.036c-0.403,0-0.52,0.085-0.52,0.446v1.997c0,0.255-0.203,0.426-0.469,0.426
				c-0.275,0-0.478-0.171-0.478-0.426v-2.199c0-0.754,0.425-1.115,1.169-1.115H201.104z"/>
			<path fill="#444444" d="M204.992,58.084c-0.266,0-0.414-0.17-0.414-0.456c0-0.277,0.148-0.479,0.425-0.479h8.064
				c0.276,0,0.425,0.201,0.425,0.479c0,0.286-0.148,0.456-0.415,0.456H204.992z"/>
			<path fill="#444444" d="M218.624,55.205c-0.616,0.957-1.466,1.838-2.401,2.454c-0.096,0.053-0.181,0.085-0.275,0.085
				c-0.139,0-0.267-0.074-0.361-0.191c-0.054-0.073-0.085-0.169-0.085-0.276c0-0.138,0.063-0.297,0.223-0.393
				c1.052-0.68,2.114-1.848,2.826-3.623c0.074-0.19,0.202-0.308,0.415-0.308c0.053,0,0.116,0.01,0.19,0.032
				c0.224,0.053,0.33,0.212,0.33,0.383c0,0.042-0.011,0.095-0.022,0.137c-0.062,0.224-0.212,0.521-0.413,0.872l3.325-0.063
				c0.68-0.011,1.104,0.372,1.104,1.062c0,0.127-0.011,0.255-0.042,0.403c-0.638,3.006-2.752,5.439-6.375,6.311
				c-0.042,0.01-0.085,0.01-0.128,0.01c-0.212,0-0.371-0.105-0.436-0.308c-0.011-0.053-0.021-0.105-0.021-0.158
				c0-0.192,0.116-0.352,0.35-0.404c3.103-0.818,5.005-2.709,5.643-5.588c0.01-0.075,0.021-0.128,0.021-0.191
				c0-0.202-0.106-0.297-0.403-0.297c-0.011,0-0.021,0-0.043,0L218.624,55.205z"/>
		</g>
		<path fill="#444444" d="M122.918,55.885c-0.17,0-0.276-0.138-0.276-0.34c0-0.191,0.106-0.34,0.276-0.34h2.857v-0.414
			c0-0.191,0.096-0.287,0.372-0.287s0.372,0.096,0.372,0.287v0.414h3.007c0.169,0,0.265,0.138,0.265,0.34
			c0,0.19-0.096,0.34-0.265,0.34h-3.007v0.69h3.176c0.171,0,0.266,0.148,0.266,0.34c0,0.19-0.095,0.34-0.266,0.34h-3.176v0.775
			h4.153c0.181,0,0.276,0.148,0.276,0.35c0,0.202-0.096,0.362-0.276,0.362h-8.901c-0.17,0-0.276-0.16-0.276-0.362
			c0-0.19,0.106-0.35,0.276-0.35h4.004v-0.775h-3.048c-0.17,0-0.267-0.138-0.267-0.34c0-0.181,0.097-0.34,0.267-0.34h3.048v-0.69
			H122.918z M129.93,53.537c0.616,0,0.913,0.233,0.913,0.828v0.978c0,0.202-0.148,0.318-0.414,0.318
			c-0.244,0-0.414-0.116-0.414-0.318v-0.839c0-0.202-0.106-0.266-0.33-0.266h-6.915c-0.233,0-0.329,0.063-0.329,0.266v0.828
			c0,0.201-0.17,0.318-0.414,0.318c-0.266,0-0.415-0.117-0.415-0.318v-0.967c0-0.595,0.298-0.828,0.914-0.828h3.239v-0.596
			c0-0.212,0.128-0.34,0.394-0.34c0.286,0,0.415,0.128,0.415,0.34v0.596H129.93z M128.984,59.454c0.573,0,0.86,0.223,0.86,0.807
			v1.137c0,0.573-0.287,0.807-0.86,0.807h-5.535c-0.573,0-0.859-0.233-0.859-0.807v-1.137c0-0.584,0.286-0.807,0.859-0.807H128.984z
			 M128.729,61.515c0.223,0,0.318-0.054,0.318-0.256v-0.86c0-0.201-0.096-0.255-0.318-0.255h-5.025
			c-0.224,0-0.318,0.054-0.318,0.255v0.86c0,0.202,0.095,0.256,0.318,0.256H128.729z"/>
	</g>
	<g id="点字_1_">
		<g>
			<circle fill="#CCCCCC" cx="79.137" cy="21.092" r="1.45"/>
			<circle fill="#CCCCCC" cx="79.137" cy="26.136" r="1.45"/>
			<circle fill="#CCCCCC" cx="94.819" cy="16.046" r="1.449"/>
			<circle fill="#CCCCCC" cx="90.284" cy="21.092" r="1.449"/>
			<circle fill="#CCCCCC" cx="94.819" cy="21.092" r="1.449"/>
			<circle fill="#CCCCCC" cx="105.967" cy="16.046" r="1.449"/>
			<circle fill="#CCCCCC" cx="105.967" cy="21.092" r="1.449"/>
			<circle fill="#CCCCCC" cx="126.184" cy="16.046" r="1.449"/>
			<circle fill="#CCCCCC" cx="121.648" cy="21.092" r="1.449"/>
			<circle fill="#CCCCCC" cx="137.331" cy="16.046" r="1.449"/>
			<circle fill="#CCCCCC" cx="141.866" cy="16.046" r="1.449"/>
			<circle fill="#CCCCCC" cx="157.547" cy="16.046" r="1.449"/>
			<circle fill="#CCCCCC" cx="153.013" cy="21.092" r="1.449"/>
			<circle fill="#CCCCCC" cx="157.547" cy="21.092" r="1.449"/>
			<circle fill="#CCCCCC" cx="153.013" cy="26.136" r="1.449"/>
			<circle fill="#CCCCCC" cx="168.695" cy="21.092" r="1.449"/>
			<circle fill="#CCCCCC" cx="184.377" cy="16.046" r="1.449"/>
			<circle fill="#CCCCCC" cx="188.912" cy="16.046" r="1.449"/>
			<circle fill="#CCCCCC" cx="188.912" cy="21.092" r="1.449"/>
			<circle fill="#CCCCCC" cx="184.377" cy="26.136" r="1.449"/>
			<circle fill="#CCCCCC" cx="200.059" cy="16.046" r="1.449"/>
			<circle fill="#CCCCCC" cx="204.593" cy="21.092" r="1.449"/>
			<circle fill="#CCCCCC" cx="220.275" cy="16.046" r="1.449"/>
			<circle fill="#CCCCCC" cx="215.74" cy="21.092" r="1.449"/>
			<circle fill="#CCCCCC" cx="220.275" cy="21.092" r="1.449"/>
			<circle fill="#CCCCCC" cx="215.74" cy="26.136" r="1.449"/>
		</g>
		<g>
			<circle fill="#CCCCCC" cx="173.229" cy="21.092" r="1.449"/>
			<circle fill="#CCCCCC" cx="173.229" cy="26.136" r="1.449"/>
		</g>
	</g>
</g>
</svg>
